<svg xmlns="http://www.w3.org/2000/svg" viewBox="0 0 200 200" role="img" aria-label="Coffee leaf and cherry pattern">
  <g fill="none" stroke="currentColor" stroke-width="1.2" stroke-linecap="round">
    
    <path d="M 30 180 C 60 140, 80 100, 100 60"></path>
    
    <path d="M 88 80 C 70 76, 56 88, 60 102 C 76 102, 88 94, 88 80 Z"></path>
    <path d="M 100 80 C 118 76, 132 88, 128 102 C 112 102, 100 94, 100 80 Z"></path>

    <path d="M 70 124 C 52 120, 38 132, 42 146 C 58 146, 70 138, 70 124 Z"></path>
    <path d="M 82 124 C 100 120, 114 132, 110 146 C 94 146, 82 138, 82 124 Z"></path>

    
    <circle cx="120" cy="120" r="6"></circle>
    <circle cx="134" cy="132" r="6"></circle>
    <circle cx="124" cy="146" r="6"></circle>
    
    <path d="M 120 114 L 122 108"></path>
    <path d="M 134 126 L 136 120"></path>
    <path d="M 124 140 L 126 134"></path>
  </g>
</svg>