<svg xmlns="http://www.w3.org/2000/svg" viewBox="0 0 240 120" preserveAspectRatio="xMidYMid slice" role="img" aria-label="Mushonge arc pattern">
  
  <g stroke="currentColor" stroke-width="1.2" fill="none" opacity="0.9">
    <path d="M -20 90 C 0 60, 60 60, 80 90"></path>
    <path d="M 60 90 C 80 60, 140 60, 160 90"></path>
    <path d="M 140 90 C 160 60, 220 60, 240 90"></path>
    <path d="M 220 90 C 240 60, 300 60, 320 90"></path>

    <path d="M -20 100 C 0 80, 60 80, 80 100"></path>
    <path d="M 60 100 C 80 80, 140 80, 160 100"></path>
    <path d="M 140 100 C 160 80, 220 80, 240 100"></path>
    <path d="M 220 100 C 240 80, 300 80, 320 100"></path>

    <path d="M -20 110 C 0 96, 60 96, 80 110"></path>
    <path d="M 60 110 C 80 96, 140 96, 160 110"></path>
    <path d="M 140 110 C 160 96, 220 96, 240 110"></path>
  </g>
</svg>